<?xml version="1.0" encoding="utf-8"?>
<!-- Generator: Adobe Illustrator 26.5.0, SVG Export Plug-In . SVG Version: 6.00 Build 0)  -->
<svg version="1.1" id="Camada_1" xmlns="http://www.w3.org/2000/svg" xmlns:xlink="http://www.w3.org/1999/xlink" x="0px" y="0px"
	 viewBox="0 0 1080 1080" style="enable-background:new 0 0 1080 1080;" xml:space="preserve">
<style type="text/css">
	.st0{fill:url(#SVGID_1_);}
	.st1{fill:#FFFFFF;stroke:url(#SVGID_00000106826932109575957410000015498594692209701555_);stroke-width:8;stroke-miterlimit:10;}
	.st2{fill:#FFFFFF;stroke:url(#SVGID_00000139979350896146271030000017496676243066356619_);stroke-width:8;stroke-miterlimit:10;}
	.st3{fill:#FFFFFF;stroke:url(#SVGID_00000105390455553207918380000018115768769642180279_);stroke-width:8;stroke-miterlimit:10;}
	.st4{fill:#FFFFFF;stroke:url(#SVGID_00000116224581357888952330000014065488005984213669_);stroke-width:8;stroke-miterlimit:10;}
	.st5{fill:#FFFFFF;stroke:url(#SVGID_00000003074344415794010390000012079733080244829118_);stroke-width:8;stroke-miterlimit:10;}
</style>
<linearGradient id="SVGID_1_" gradientUnits="userSpaceOnUse" x1="0" y1="540" x2="1080" y2="540">
	<stop  offset="0" style="stop-color:#7F408E"/>
	<stop  offset="1" style="stop-color:#9C68A7"/>
</linearGradient>
<circle class="st0" cx="540" cy="540" r="540"/>
<g>
	
		<linearGradient id="SVGID_00000147901004360651728120000016435985091356161433_" gradientUnits="userSpaceOnUse" x1="243.8121" y1="383.159" x2="541.3744" y2="383.159">
		<stop  offset="0" style="stop-color:#7F408E"/>
		<stop  offset="1" style="stop-color:#9C68A7"/>
	</linearGradient>
	
		<path style="fill:#FFFFFF;stroke:url(#SVGID_00000147901004360651728120000016435985091356161433_);stroke-width:8;stroke-miterlimit:10;" d="
		M363.2,439.84c-15.69,12.91-24.36-1.83-36.46,8.12c-7.21,5.93-8.24,16.56-2.31,23.77l39.99,48.62c7.29,8.86,20.5,10.15,29.36,2.86
		l48.62-39.99c7.21-5.93,17.84-4.89,23.77,2.32c10,12.16-4.86,20.68,8.12,36.46c8.81,10.72,24.62,12.26,35.33,3.44
		c10.72-8.81,12.25-24.62,3.44-35.33c-12.91-15.69-24.25-2.9-34.21-15c-5.93-7.21-4.89-17.84,2.31-23.77l48.62-39.99
		c8.86-7.29,10.15-20.5,2.86-29.36l-40-48.62c-5.93-7.21-16.56-8.24-23.77-2.31c-12.16,10,0.78,21.23-15.01,34.21
		c-10.72,8.81-26.52,7.28-35.33-3.44c-8.81-10.72-7.27-26.52,3.44-35.33c15.7-12.91,24.36,1.83,36.46-8.12
		c7.21-5.93,8.24-16.56,2.32-23.77l-40-48.62c-7.29-8.86-20.5-10.15-29.36-2.86l-48.62,39.99c-7.21,5.93-17.84,4.89-23.77-2.31
		c-10-12.16,4.86-20.68-8.12-36.46c-8.81-10.72-24.62-12.25-35.33-3.44c-10.72,8.81-12.25,24.62-3.44,35.33
		c12.91,15.69,24.25,2.9,34.21,15c5.93,7.21,4.89,17.84-2.31,23.77l-48.62,39.99c-8.86,7.29-10.15,20.5-2.86,29.36l39.99,48.62
		c5.93,7.21,16.56,8.24,23.77,2.31c12.16-10-0.78-21.22,15-34.21c10.72-8.81,26.52-7.27,35.33,3.44
		C375.45,415.23,373.91,431.03,363.2,439.84z"/>
	
		<linearGradient id="SVGID_00000138546501137053197810000017892579865510275468_" gradientUnits="userSpaceOnUse" x1="521.9548" y1="716.9836" x2="819.7191" y2="716.9836">
		<stop  offset="0" style="stop-color:#7F408E"/>
		<stop  offset="1" style="stop-color:#9C68A7"/>
	</linearGradient>
	
		<path style="fill:#FFFFFF;stroke:url(#SVGID_00000138546501137053197810000017892579865510275468_);stroke-width:8;stroke-miterlimit:10;" d="
		M641.94,773.92c-15.58,13.04-24.37-1.62-36.39,8.44c-7.16,5.99-8.1,16.63-2.11,23.79l40.42,48.27c7.36,8.79,20.58,9.96,29.38,2.6
		l48.27-40.42c7.16-5.99,17.8-5.05,23.79,2.11c10.11,12.07-4.68,20.72,8.44,36.38c8.91,10.64,24.72,12.04,35.36,3.13
		s12.04-24.72,3.13-35.36c-13.05-15.58-24.28-2.69-34.34-14.7c-5.99-7.16-5.05-17.8,2.11-23.79l48.27-40.42
		c8.79-7.36,9.96-20.58,2.6-29.38l-40.42-48.27c-5.99-7.15-16.63-8.1-23.79-2.1c-12.07,10.11,0.96,21.22-14.7,34.34
		c-10.64,8.91-26.45,7.51-35.36-3.13c-8.91-10.64-7.51-26.45,3.13-35.36c15.58-13.05,24.37,1.62,36.39-8.44
		c7.15-5.99,8.1-16.63,2.11-23.79l-40.42-48.27c-7.36-8.79-20.58-9.96-29.38-2.6l-48.27,40.42c-7.16,5.99-17.8,5.05-23.79-2.11
		c-10.11-12.07,4.67-20.72-8.44-36.39c-8.91-10.64-24.72-12.04-35.36-3.13c-10.64,8.91-12.04,24.72-3.13,35.36
		c13.04,15.58,24.28,2.69,34.34,14.7c5.99,7.16,5.05,17.8-2.11,23.79l-48.27,40.42c-8.8,7.36-9.97,20.59-2.6,29.38l40.42,48.27
		c5.99,7.16,16.63,8.1,23.79,2.11c12.07-10.11-0.97-21.22,14.7-34.34c10.64-8.91,26.45-7.51,35.36,3.13
		C653.98,749.2,652.58,765.01,641.94,773.92z"/>
	
		<linearGradient id="SVGID_00000100375198129706198390000004074530324916748441_" gradientUnits="userSpaceOnUse" x1="408.8262" y1="244.7813" x2="712.8245" y2="244.7813">
		<stop  offset="0" style="stop-color:#7F408E"/>
		<stop  offset="1" style="stop-color:#9C68A7"/>
	</linearGradient>
	
		<path style="fill:#FFFFFF;stroke:url(#SVGID_00000100375198129706198390000004074530324916748441_);stroke-width:8;stroke-miterlimit:10;" d="
		M453.88,365.25c15.69-12.91,2.9-24.25,15-34.21c7.21-5.93,17.84-4.89,23.77,2.31l39.99,48.62c7.29,8.86,20.5,10.14,29.36,2.86
		l48.62-40c7.21-5.93,8.24-16.56,2.31-23.77c-10-12.16-21.23,0.77-34.21-15c-8.81-10.72-7.28-26.52,3.44-35.33
		s26.52-7.28,35.33,3.44c12.91,15.69-1.83,24.36,8.12,36.46c5.93,7.21,16.56,8.24,23.77,2.31l48.62-40
		c8.86-7.29,10.15-20.5,2.86-29.36l-39.99-48.62c-5.93-7.21-4.89-17.84,2.31-23.77c12.16-10,20.68,4.86,36.46-8.12
		c10.72-8.81,12.26-24.62,3.44-35.33c-8.81-10.72-24.62-12.25-35.33-3.44c-15.69,12.91-2.9,24.25-15,34.21
		c-7.21,5.93-17.84,4.89-23.77-2.32L589,107.58c-7.29-8.86-20.5-10.15-29.36-2.86l-48.62,40c-7.21,5.93-8.24,16.56-2.31,23.77
		c10,12.16,21.23-0.77,34.21,15c8.81,10.72,7.27,26.52-3.44,35.33s-26.52,7.27-35.33-3.44c-12.91-15.69,1.83-24.36-8.12-36.46
		c-5.93-7.21-16.56-8.24-23.77-2.32l-48.62,40c-8.86,7.29-10.15,20.5-2.86,29.36l39.99,48.62c5.93,7.21,4.89,17.84-2.31,23.77
		c-12.16,10-20.67-4.86-36.46,8.12c-10.72,8.81-12.25,24.62-3.44,35.33C427.36,372.53,443.17,374.06,453.88,365.25z"/>
	
		<linearGradient id="SVGID_00000117642757418038206450000002872001713918167448_" gradientUnits="userSpaceOnUse" x1="380.3814" y1="550.563" x2="682.168" y2="550.563">
		<stop  offset="0" style="stop-color:#7F408E"/>
		<stop  offset="1" style="stop-color:#9C68A7"/>
	</linearGradient>
	
		<path style="fill:#FFFFFF;stroke:url(#SVGID_00000117642757418038206450000002872001713918167448_);stroke-width:8;stroke-miterlimit:10;" d="
		M474.28,521.78c-13.08-15.55,1.57-24.38-8.52-36.37c-6.01-7.14-16.65-8.06-23.79-2.06l-48.18,40.52
		c-8.78,7.38-9.92,20.61-2.54,29.39l40.52,48.19c6.01,7.14,5.09,17.79-2.06,23.79c-12.06,10.14-20.73-4.63-36.37,8.52
		c-10.62,8.93-11.99,24.75-3.06,35.37s24.75,11.99,35.37,3.06c15.55-13.08,2.64-24.29,14.63-34.37c7.14-6.01,17.79-5.09,23.79,2.06
		l40.52,48.19c7.38,8.78,20.61,9.92,29.39,2.54l48.18-40.52c7.14-6.01,8.06-16.65,2.06-23.79c-10.13-12.05-21.22,1.01-34.37-14.63
		c-8.93-10.62-7.56-26.44,3.06-35.37c10.62-8.93,26.44-7.56,35.37,3.06c13.08,15.55-1.57,24.38,8.52,36.37
		c6.01,7.14,16.65,8.06,23.79,2.06l48.18-40.52c8.78-7.38,9.92-20.61,2.54-29.39l-40.52-48.19c-6.01-7.14-5.09-17.79,2.06-23.79
		c12.05-10.13,20.73,4.63,36.37-8.52c10.62-8.93,11.99-24.75,3.06-35.37s-24.75-11.99-35.37-3.06
		c-15.55,13.08-2.64,24.28-14.63,34.37c-7.14,6.01-17.79,5.09-23.79-2.06l-40.52-48.19c-7.38-8.78-20.61-9.92-29.39-2.54
		l-48.18,40.52c-7.14,6.01-8.06,16.65-2.06,23.79c10.12,12.03,21.23-0.99,34.37,14.63c8.93,10.62,7.56,26.44-3.06,35.37
		C499.02,533.77,483.21,532.4,474.28,521.78z"/>
	
		<linearGradient id="SVGID_00000027587003466149395240000015147169135613093015_" gradientUnits="userSpaceOnUse" x1="353.4316" y1="857.0828" x2="654.9755" y2="857.0828">
		<stop  offset="0" style="stop-color:#7F408E"/>
		<stop  offset="1" style="stop-color:#9C68A7"/>
	</linearGradient>
	
		<path style="fill:#FFFFFF;stroke:url(#SVGID_00000027587003466149395240000015147169135613093015_);stroke-width:8;stroke-miterlimit:10;" d="
		M609.69,735.33c-15.54,13.1-2.61,24.29-14.59,34.39c-7.14,6.02-17.78,5.11-23.8-2.03l-40.58-48.14c-7.39-8.77-20.62-9.9-29.39-2.51
		l-48.14,40.58c-7.14,6.02-8.04,16.66-2.03,23.8c10.09,11.97,21.5-0.69,34.38,14.59c8.94,10.61,7.59,26.43-3.01,35.37
		c-10.61,8.94-26.43,7.59-35.37-3.02c-12.81-15.2,1.48-24.44-8.56-36.36c-6.02-7.14-16.66-8.04-23.8-2.03l-48.14,40.58
		c-8.77,7.39-9.9,20.62-2.5,29.39l40.58,48.14c6.02,7.14,5.11,17.78-2.03,23.8c-12.04,10.15-20.73-4.61-36.36,8.56
		c-10.61,8.94-11.96,24.76-3.01,35.37c8.94,10.61,24.76,11.96,35.37,3.02c15.54-13.1,2.61-24.29,14.59-34.39
		c7.14-6.02,17.78-5.11,23.8,2.03l40.58,48.14c7.39,8.77,20.62,9.9,29.39,2.51l48.14-40.58c7.14-6.02,8.04-16.66,2.03-23.8
		c-10.15-12.04-21.47,0.73-34.38-14.59c-8.94-10.61-7.59-26.43,3.01-35.37c10.61-8.94,26.43-7.6,35.37,3.01
		c12.86,15.26-1.5,24.42,8.56,36.36c6.02,7.14,16.66,8.04,23.79,2.03l48.14-40.58c8.77-7.39,9.9-20.62,2.5-29.39l-40.58-48.14
		c-6.02-7.14-5.11-17.78,2.03-23.8c12.04-10.15,20.74,4.61,36.36-8.56c10.61-8.94,11.96-24.76,3.01-35.37
		C636.12,727.74,620.3,726.39,609.69,735.33z"/>
</g>
</svg>
